<svg id="svg" xmlns="http://www.w3.org/2000/svg" xmlns:xlink="http://www.w3.org/1999/xlink" width="400" height="265.72295247724975" viewBox="0, 0, 400,265.72295247724975"><g id="svgg"><path id="path0" d="M56.522 47.321 C 56.956 47.765,57.357 48.129,57.413 48.129 C 57.468 48.129,57.158 47.765,56.724 47.321 C 56.290 46.876,55.889 46.512,55.833 46.512 C 55.777 46.512,56.087 46.876,56.522 47.321 M254.146 121.082 C 257.733 121.113,263.602 121.113,267.189 121.082 C 270.776 121.051,267.841 121.026,260.667 121.026 C 253.493 121.026,250.559 121.051,254.146 121.082 M299.555 132.457 C 299.555 133.069,299.593 133.319,299.639 133.013 C 299.686 132.707,299.686 132.207,299.639 131.901 C 299.593 131.595,299.555 131.845,299.555 132.457 M299.586 147.118 C 299.586 151.345,299.613 153.103,299.646 151.024 C 299.679 148.946,299.679 145.488,299.646 143.340 C 299.613 141.192,299.586 142.892,299.586 147.118 " stroke="none" fill="#04cb44" fill-rule="evenodd"></path><path id="path1" d="M190.852 201.356 C 191.103 201.405,191.467 201.403,191.661 201.352 C 191.854 201.302,191.648 201.262,191.203 201.264 C 190.758 201.267,190.600 201.308,190.852 201.356 M193.579 201.353 C 193.774 201.404,194.093 201.404,194.287 201.353 C 194.482 201.302,194.323 201.260,193.933 201.260 C 193.544 201.260,193.385 201.302,193.579 201.353 " stroke="none" fill="#04b13c" fill-rule="evenodd"></path><path id="path2" d="M203.691 156.471 C 209.002 156.501,217.692 156.501,223.003 156.471 C 228.314 156.441,223.969 156.417,213.347 156.417 C 202.725 156.417,198.380 156.441,203.691 156.471 M113.347 163.538 C 110.070 163.834,100.808 165.868,100.241 166.417 C 100.151 166.504,100.879 166.640,101.859 166.718 C 105.277 166.992,110.819 168.067,110.819 168.456 C 110.819 168.837,101.529 171.526,91.911 173.930 C 88.797 174.708,86.089 175.393,85.895 175.452 C 85.271 175.639,85.557 174.132,86.662 171.412 C 86.852 170.944,86.743 170.974,83.418 172.294 C 79.900 173.691,69.667 178.319,69.041 178.796 C 68.884 178.916,68.930 179.505,69.200 180.837 C 72.977 199.489,59.321 208.679,43.410 198.193 C 40.904 196.541,41.071 196.582,40.161 197.381 C 38.905 198.484,38.725 200.176,39.737 201.378 C 42.613 204.797,61.558 205.602,71.478 202.727 C 74.553 201.836,75.798 201.235,77.962 199.598 L 78.775 198.983 85.343 198.388 C 129.328 194.399,137.697 194.528,158.847 199.522 C 185.300 205.768,195.440 205.825,244.894 200.005 C 268.037 197.281,276.333 196.683,289.282 196.806 L 295.551 196.866 298.483 195.544 L 301.416 194.223 301.416 192.109 L 301.416 189.995 300.404 189.831 C 298.498 189.522,282.351 189.614,276.138 189.970 C 264.242 190.650,259.996 191.052,241.759 193.220 C 231.244 194.470,221.983 195.490,216.886 195.958 C 214.765 196.153,214.141 196.304,211.931 197.158 C 194.536 203.879,183.077 202.615,166.777 192.176 C 165.540 191.384,165.106 191.238,162.384 190.697 C 146.549 187.551,129.973 187.553,92.462 190.704 C 81.288 191.642,81.901 191.617,81.901 191.142 C 81.901 190.851,82.669 187.086,83.213 184.707 C 83.343 184.140,83.720 184.012,88.473 182.911 C 111.403 177.600,127.879 172.744,131.143 170.334 C 133.309 168.734,133.142 168.254,129.852 166.628 C 124.494 163.979,119.281 163.003,113.347 163.538 M54.044 186.365 C 52.991 186.994,52.989 186.953,54.091 187.328 C 55.137 187.685,55.210 187.629,55.034 186.606 L 54.904 185.851 54.044 186.365 M28.817 188.148 C 21.587 189.689,22.042 189.463,22.042 191.508 C 22.042 193.493,21.932 193.419,26.542 194.543 C 30.663 195.547,31.780 195.497,37.974 194.032 L 38.435 193.923 37.802 193.002 C 36.980 191.808,35.687 189.039,35.380 187.816 C 35.248 187.288,35.036 186.865,34.910 186.876 C 34.784 186.888,32.042 187.460,28.817 188.148 " stroke="none" fill="#049e38" fill-rule="evenodd"></path><path id="path3" d="M32.103 35.936 C 32.353 35.985,32.763 35.985,33.013 35.936 C 33.263 35.888,33.059 35.849,32.558 35.849 C 32.058 35.849,31.853 35.888,32.103 35.936 M67.139 36.906 C 67.743 37.518,68.282 38.018,68.338 38.018 C 68.394 38.018,67.945 37.518,67.341 36.906 C 66.737 36.294,66.197 35.794,66.141 35.794 C 66.086 35.794,66.534 36.294,67.139 36.906 M207.042 119.060 C 210.526 119.091,216.168 119.091,219.580 119.060 C 222.992 119.028,220.142 119.003,213.246 119.003 C 206.350 119.003,203.558 119.029,207.042 119.060 M116.737 148.578 C 117.044 148.624,117.499 148.623,117.748 148.575 C 117.997 148.527,117.745 148.489,117.189 148.491 C 116.633 148.492,116.429 148.531,116.737 148.578 M116.838 163.338 C 117.089 163.387,117.453 163.385,117.646 163.334 C 117.840 163.283,117.634 163.244,117.189 163.246 C 116.744 163.248,116.586 163.290,116.838 163.338 M271.941 169.004 C 272.303 169.049,272.894 169.049,273.256 169.004 C 273.617 168.959,273.322 168.922,272.599 168.922 C 271.876 168.922,271.580 168.959,271.941 169.004 M192.267 186.594 C 192.519 186.642,192.883 186.641,193.076 186.590 C 193.270 186.539,193.064 186.500,192.619 186.502 C 192.174 186.504,192.016 186.546,192.267 186.594 M192.267 201.356 C 192.519 201.405,192.883 201.403,193.076 201.352 C 193.270 201.302,193.064 201.262,192.619 201.264 C 192.174 201.267,192.016 201.308,192.267 201.356 " stroke="none" fill="#04bc41" fill-rule="evenodd"></path><path id="path4" d="M28.109 21.392 C 27.164 21.565,26.345 21.759,26.289 21.824 C 26.234 21.888,26.097 21.944,25.986 21.948 C 25.459 21.964,24.469 22.296,24.469 22.457 C 24.469 22.556,24.333 22.584,24.166 22.520 C 23.999 22.456,23.862 22.504,23.862 22.628 C 23.862 22.751,23.724 22.851,23.555 22.851 C 23.386 22.851,22.908 23.063,22.493 23.321 C 22.079 23.580,21.580 23.850,21.385 23.921 C 21.191 23.993,21.031 24.146,21.031 24.261 C 21.031 24.375,20.900 24.469,20.739 24.469 C 20.579 24.469,20.329 24.634,20.183 24.836 C 20.038 25.038,19.765 25.261,19.577 25.331 C 19.389 25.401,19.071 25.714,18.871 26.026 C 18.670 26.337,18.210 26.902,17.848 27.281 C 17.142 28.019,16.178 29.610,16.178 30.039 C 16.178 30.183,16.083 30.332,15.967 30.370 C 15.851 30.409,15.740 30.644,15.721 30.893 C 15.703 31.141,15.606 31.345,15.507 31.345 C 15.407 31.345,15.376 31.475,15.437 31.635 C 15.498 31.795,15.468 31.954,15.370 31.989 C 15.272 32.024,15.161 32.280,15.124 32.558 C 15.086 32.836,14.985 33.176,14.899 33.313 C 14.288 34.288,14.340 42.062,14.977 45.016 C 15.095 45.561,15.186 46.220,15.179 46.481 C 15.173 46.743,15.230 47.057,15.305 47.179 C 15.448 47.409,15.473 47.552,15.673 49.242 C 15.739 49.798,15.935 50.799,16.108 51.466 C 16.280 52.133,16.468 53.043,16.525 53.488 C 16.581 53.933,16.709 54.328,16.808 54.365 C 16.908 54.402,16.939 54.515,16.877 54.615 C 16.775 54.780,17.250 57.096,17.538 57.836 C 17.603 58.003,17.673 58.231,17.695 58.342 C 17.716 58.453,17.754 58.589,17.779 58.645 C 17.803 58.701,17.855 58.974,17.893 59.252 C 17.976 59.861,18.772 63.072,18.946 63.498 C 19.014 63.665,19.103 63.984,19.143 64.206 C 19.183 64.429,19.271 64.747,19.338 64.914 C 19.405 65.081,19.489 65.490,19.524 65.824 C 19.559 66.158,19.699 66.704,19.836 67.037 C 19.973 67.371,20.072 67.709,20.055 67.789 C 20.039 67.868,20.127 68.187,20.252 68.497 C 20.377 68.806,20.507 69.271,20.541 69.530 C 20.575 69.788,20.695 70.111,20.807 70.247 C 20.920 70.383,21.002 70.672,20.989 70.889 C 20.959 71.397,22.225 75.855,22.494 76.188 C 22.607 76.327,22.631 76.441,22.548 76.441 C 22.465 76.441,22.499 76.563,22.623 76.712 C 22.747 76.861,22.794 77.037,22.728 77.103 C 22.662 77.169,22.682 77.341,22.771 77.486 C 22.860 77.630,22.947 77.886,22.964 78.055 C 23.004 78.452,23.674 80.728,23.827 80.987 C 23.892 81.097,23.969 81.324,23.999 81.493 C 24.213 82.688,24.329 83.114,24.442 83.114 C 24.512 83.114,24.584 83.319,24.601 83.569 C 24.618 83.820,24.747 84.297,24.887 84.631 C 25.027 84.965,25.128 85.303,25.111 85.382 C 25.094 85.462,25.185 85.780,25.312 86.090 C 25.439 86.400,25.561 86.744,25.582 86.855 C 25.603 86.967,25.646 87.126,25.677 87.209 C 25.708 87.293,25.756 87.452,25.784 87.563 C 25.811 87.674,25.857 87.811,25.885 87.867 C 25.913 87.922,25.958 88.059,25.986 88.170 C 26.014 88.281,26.058 88.440,26.085 88.524 C 26.112 88.607,26.147 88.766,26.164 88.878 C 26.283 89.660,26.802 91.203,26.946 91.203 C 27.043 91.203,27.072 91.283,27.012 91.381 C 26.951 91.479,27.074 92.093,27.285 92.746 C 27.496 93.399,27.825 94.502,28.016 95.197 C 28.208 95.892,28.449 96.461,28.552 96.461 C 28.655 96.461,28.688 96.544,28.625 96.646 C 28.562 96.748,28.618 97.089,28.748 97.405 C 28.879 97.720,28.993 98.038,29.002 98.113 C 29.012 98.187,29.081 98.309,29.157 98.385 C 29.233 98.461,29.246 98.650,29.186 98.806 C 29.126 98.962,29.168 99.090,29.278 99.090 C 29.389 99.090,29.468 99.204,29.454 99.343 C 29.411 99.764,29.994 101.719,30.163 101.719 C 30.250 101.719,30.269 101.855,30.205 102.022 C 30.141 102.189,30.166 102.326,30.261 102.326 C 30.357 102.326,30.449 102.531,30.466 102.781 C 30.483 103.031,30.611 103.509,30.752 103.842 C 30.893 104.176,31.027 104.517,31.050 104.601 C 31.073 104.684,31.114 104.821,31.141 104.904 C 31.168 104.987,31.182 105.118,31.171 105.194 C 31.152 105.327,31.616 106.748,31.885 107.381 C 31.956 107.548,32.030 107.776,32.050 107.887 C 32.207 108.763,32.437 109.403,32.595 109.403 C 32.699 109.403,32.733 109.487,32.670 109.589 C 32.607 109.691,32.659 110.032,32.786 110.347 C 32.913 110.662,33.046 111.139,33.081 111.407 C 33.116 111.675,33.217 111.948,33.306 112.014 C 33.785 112.367,33.529 113.277,32.526 114.792 C 31.947 115.665,31.498 116.418,31.529 116.463 C 31.559 116.509,31.437 116.628,31.258 116.728 C 31.078 116.829,30.979 116.986,31.036 117.079 C 31.093 117.172,30.998 117.302,30.825 117.369 C 30.652 117.435,30.561 117.572,30.623 117.672 C 30.685 117.772,30.594 117.909,30.421 117.975 C 30.248 118.042,30.157 118.178,30.219 118.279 C 30.281 118.379,30.190 118.516,30.016 118.582 C 29.843 118.649,29.752 118.785,29.814 118.885 C 29.876 118.986,29.785 119.122,29.612 119.189 C 29.439 119.255,29.354 119.401,29.423 119.513 C 29.492 119.625,29.465 119.717,29.363 119.717 C 29.140 119.717,27.634 121.940,27.854 121.944 C 27.939 121.946,27.914 122.014,27.799 122.096 C 27.451 122.344,26.147 124.237,26.004 124.703 C 25.930 124.943,25.736 125.191,25.574 125.253 C 25.411 125.315,25.278 125.498,25.278 125.659 C 25.278 125.820,25.210 125.982,25.126 126.020 C 24.912 126.115,23.817 127.604,23.961 127.604 C 24.082 127.604,23.849 127.920,23.205 128.629 C 23.011 128.844,22.920 129.021,23.003 129.022 C 23.086 129.024,23.061 129.092,22.947 129.174 C 22.518 129.481,21.452 130.990,21.576 131.114 C 21.647 131.185,21.599 131.244,21.469 131.244 C 21.340 131.244,21.234 131.370,21.234 131.525 C 21.234 131.680,21.084 131.864,20.901 131.935 C 20.719 132.005,20.618 132.111,20.677 132.170 C 20.736 132.230,20.522 132.566,20.200 132.918 C 19.879 133.270,19.616 133.670,19.616 133.807 C 19.616 133.943,19.457 134.147,19.262 134.261 C 19.067 134.374,18.976 134.470,19.058 134.473 C 19.141 134.477,19.031 134.684,18.813 134.934 C 18.595 135.185,18.402 135.480,18.383 135.592 C 18.364 135.703,18.177 135.914,17.967 136.060 C 17.758 136.207,17.633 136.402,17.690 136.494 C 17.747 136.586,17.657 136.714,17.491 136.777 C 17.325 136.841,17.189 137.025,17.189 137.186 C 17.189 137.347,17.108 137.509,17.008 137.546 C 16.909 137.583,16.265 138.374,15.578 139.303 C 14.891 140.232,14.449 140.931,14.596 140.855 C 14.746 140.778,14.729 140.836,14.557 140.986 C 14.038 141.440,12.898 142.972,13.077 142.977 C 13.170 142.980,13.057 143.139,12.827 143.331 C 12.264 143.800,11.047 145.399,11.251 145.399 C 11.341 145.399,11.211 145.542,10.962 145.717 C 10.713 145.891,10.561 146.119,10.625 146.222 C 10.689 146.326,10.666 146.411,10.573 146.411 C 10.399 146.411,8.171 149.294,8.259 149.404 C 8.287 149.438,8.100 149.640,7.845 149.853 C 7.590 150.065,7.460 150.242,7.555 150.246 C 7.651 150.250,7.515 150.432,7.252 150.651 C 6.989 150.869,6.835 151.051,6.909 151.055 C 6.983 151.059,6.755 151.387,6.403 151.785 C 6.051 152.182,5.791 152.552,5.824 152.607 C 5.858 152.661,5.652 152.889,5.367 153.113 C 5.083 153.337,4.896 153.597,4.954 153.690 C 5.011 153.782,4.944 153.898,4.804 153.947 C 4.509 154.050,5.169 154.904,5.544 154.904 C 5.667 154.904,5.881 155.086,6.020 155.308 C 6.159 155.531,6.408 155.713,6.574 155.713 C 6.740 155.713,6.876 155.781,6.876 155.865 C 6.876 155.948,7.209 156.283,7.617 156.608 C 8.025 156.934,8.285 157.070,8.193 156.911 C 8.101 156.751,8.198 156.784,8.412 156.986 C 9.762 158.258,12.304 160.255,12.580 160.260 C 12.658 160.262,12.840 160.404,12.984 160.577 C 13.351 161.017,15.167 162.440,15.167 162.287 C 15.167 162.218,15.394 162.417,15.671 162.729 L 16.176 163.296 16.767 162.591 C 17.093 162.202,17.343 161.838,17.325 161.782 C 17.306 161.725,17.472 161.480,17.695 161.238 C 18.420 160.448,18.707 160.072,18.642 159.997 C 18.607 159.956,18.713 159.817,18.877 159.688 C 19.391 159.287,23.635 153.530,23.509 153.405 C 23.444 153.340,23.486 153.286,23.603 153.286 C 23.719 153.286,24.069 152.952,24.381 152.544 C 24.692 152.135,24.817 151.869,24.658 151.952 C 24.432 152.069,24.435 152.043,24.671 151.835 C 25.290 151.289,26.472 149.694,26.349 149.571 C 26.279 149.501,26.316 149.444,26.431 149.444 C 26.623 149.444,27.789 147.856,27.768 147.624 C 27.763 147.568,27.930 147.403,28.140 147.256 C 28.349 147.109,28.474 146.914,28.417 146.822 C 28.360 146.730,28.450 146.603,28.616 146.539 C 28.782 146.475,28.918 146.284,28.918 146.114 C 28.918 145.943,28.991 145.804,29.079 145.804 C 29.253 145.804,31.880 142.192,31.806 142.055 C 31.782 142.010,32.027 141.682,32.351 141.327 C 32.676 140.972,33.048 140.424,33.179 140.108 C 33.309 139.793,33.496 139.535,33.594 139.535 C 33.692 139.535,33.771 139.449,33.771 139.345 C 33.771 139.241,34.040 138.861,34.369 138.502 C 34.697 138.142,34.919 137.772,34.862 137.680 C 34.805 137.588,34.855 137.513,34.973 137.513 C 35.091 137.513,35.187 137.376,35.187 137.209 C 35.187 137.042,35.280 136.906,35.394 136.906 C 35.507 136.906,35.712 136.656,35.849 136.350 C 35.985 136.044,36.279 135.638,36.501 135.447 C 36.724 135.256,36.838 135.096,36.756 135.093 C 36.673 135.089,36.809 134.851,37.059 134.564 C 37.308 134.277,37.507 133.981,37.501 133.907 C 37.494 133.832,37.699 133.545,37.956 133.268 C 38.213 132.991,38.423 132.709,38.423 132.642 C 38.423 132.575,38.639 132.268,38.903 131.961 C 39.407 131.374,39.652 131.479,39.786 132.340 C 39.819 132.554,39.935 132.835,40.043 132.965 C 40.151 133.096,40.187 133.254,40.123 133.318 C 40.060 133.381,40.125 133.646,40.269 133.906 C 40.413 134.166,40.514 134.439,40.493 134.514 C 40.459 134.636,41.069 136.551,41.384 137.310 C 41.453 137.477,41.539 137.840,41.575 138.116 C 41.611 138.393,41.736 138.651,41.853 138.690 C 41.970 138.729,42.020 138.834,41.964 138.924 C 41.876 139.066,42.212 140.236,42.604 141.153 C 42.675 141.320,42.715 141.570,42.692 141.709 C 42.670 141.848,42.752 141.962,42.875 141.962 C 42.997 141.962,43.041 142.053,42.973 142.164 C 42.904 142.275,42.919 142.480,43.005 142.619 C 43.092 142.758,43.190 143.046,43.224 143.260 C 43.257 143.474,43.384 143.770,43.507 143.917 C 43.630 144.065,43.662 144.186,43.579 144.186 C 43.497 144.186,43.530 144.308,43.654 144.457 C 43.778 144.607,43.834 144.775,43.778 144.830 C 43.689 144.919,44.046 146.130,44.423 147.017 C 44.493 147.184,44.563 147.412,44.578 147.523 C 44.651 148.088,45.377 150.277,45.520 150.366 C 45.611 150.422,45.634 150.602,45.571 150.765 C 45.508 150.928,45.563 151.062,45.693 151.062 C 45.823 151.062,45.883 151.137,45.826 151.228 C 45.737 151.371,46.475 154.008,46.854 154.904 C 47.011 155.275,47.001 155.239,47.187 156.168 C 47.271 156.585,47.431 156.926,47.544 156.926 C 47.657 156.926,47.698 157.008,47.636 157.109 C 47.574 157.209,47.887 158.458,48.332 159.884 C 48.777 161.310,49.141 162.592,49.141 162.735 C 49.141 162.877,49.237 162.993,49.355 162.993 C 49.472 162.993,49.517 163.076,49.454 163.178 C 49.391 163.280,49.444 163.621,49.572 163.937 C 49.813 164.531,49.853 164.678,50.068 165.774 C 50.139 166.135,50.284 166.431,50.389 166.431 C 50.494 166.431,50.529 166.513,50.467 166.613 C 50.373 166.766,50.901 168.829,51.302 169.869 C 51.666 170.815,51.554 171.018,50.338 171.611 C 49.680 171.932,49.141 172.262,49.141 172.346 C 49.141 172.429,49.035 172.497,48.905 172.497 C 48.575 172.497,45.010 174.336,44.927 174.549 C 44.890 174.646,44.776 174.673,44.674 174.610 C 44.573 174.547,44.489 174.592,44.489 174.710 C 44.489 174.828,44.421 174.908,44.338 174.887 C 44.080 174.825,41.254 176.181,41.254 176.367 C 41.254 176.463,41.186 176.523,41.102 176.500 C 40.853 176.432,39.636 177.143,39.636 177.356 C 39.636 177.464,39.541 177.553,39.425 177.553 C 38.937 177.553,37.043 179.463,36.878 180.121 C 36.814 180.377,36.675 180.586,36.571 180.586 C 36.341 180.586,35.791 181.834,35.925 182.051 C 35.977 182.135,35.932 182.204,35.824 182.204 C 35.275 182.204,35.077 186.631,35.557 188.170 C 36.161 190.107,37.859 193.327,38.277 193.327 C 38.394 193.327,38.432 193.385,38.360 193.456 C 38.289 193.528,38.695 194.123,39.263 194.778 C 39.831 195.434,40.339 195.927,40.391 195.874 C 40.444 195.821,40.716 196.023,40.996 196.322 C 41.276 196.621,41.585 196.843,41.683 196.815 C 41.780 196.787,41.860 196.848,41.860 196.949 C 41.860 197.234,45.820 199.691,47.523 200.464 C 57.723 205.090,66.646 201.693,69.193 192.214 C 69.963 189.350,69.821 184.072,68.846 179.352 C 68.745 178.861,68.856 178.768,70.516 177.965 C 75.753 175.431,82.880 172.320,85.875 171.262 C 86.782 170.942,87.965 170.482,88.504 170.240 C 89.720 169.695,89.565 169.752,90.344 169.568 C 90.705 169.483,91.001 169.319,91.001 169.203 C 91.001 169.087,91.054 169.045,91.119 169.110 C 91.236 169.227,93.202 168.618,93.684 168.316 C 93.821 168.230,94.024 168.155,94.135 168.149 C 94.620 168.123,95.652 167.802,95.652 167.679 C 95.652 167.604,95.900 167.529,96.202 167.511 C 96.505 167.493,96.785 167.379,96.826 167.257 C 96.867 167.135,96.967 167.076,97.049 167.127 C 97.178 167.207,99.823 166.458,100.708 166.091 C 100.875 166.022,101.184 165.932,101.395 165.891 C 101.606 165.851,102.380 165.638,103.114 165.418 C 114.007 162.158,123.754 162.829,131.461 167.370 C 132.176 167.791,132.888 168.155,133.043 168.179 C 133.199 168.204,133.403 168.344,133.495 168.490 C 133.588 168.637,133.666 168.684,133.667 168.597 C 133.669 168.509,133.784 168.533,133.923 168.650 C 134.372 169.028,135.693 169.859,135.693 169.763 C 135.693 169.712,135.878 169.829,136.104 170.022 C 136.330 170.216,136.557 170.352,136.609 170.324 C 136.660 170.297,136.922 170.466,137.191 170.699 C 137.459 170.932,137.710 171.097,137.747 171.065 C 137.785 171.034,138.080 171.253,138.404 171.552 C 138.727 171.852,139.031 172.058,139.078 172.010 C 139.126 171.963,139.377 172.108,139.635 172.332 C 139.894 172.557,140.162 172.729,140.232 172.713 C 140.301 172.698,140.488 172.802,140.647 172.945 C 141.343 173.571,141.558 173.717,141.563 173.567 C 141.567 173.479,141.662 173.567,141.776 173.761 C 141.889 173.956,142.114 174.115,142.275 174.115 C 142.436 174.115,142.568 174.206,142.568 174.317 C 142.568 174.429,142.666 174.520,142.786 174.520 C 142.906 174.520,143.275 174.791,143.607 175.123 C 143.938 175.454,144.272 175.707,144.349 175.685 C 144.426 175.662,144.803 175.934,145.186 176.290 C 145.569 176.645,145.918 176.900,145.962 176.855 C 146.006 176.811,146.319 177.040,146.657 177.362 C 146.995 177.685,147.341 177.906,147.426 177.854 C 147.512 177.801,147.632 177.889,147.694 178.050 C 147.756 178.211,148.197 178.597,148.676 178.907 C 149.154 179.217,149.619 179.587,149.709 179.729 C 149.799 179.872,149.959 179.935,150.063 179.871 C 150.167 179.806,150.253 179.838,150.253 179.940 C 150.253 180.165,153.122 182.326,153.330 182.257 C 153.410 182.230,153.575 182.392,153.695 182.616 C 153.815 182.841,153.995 182.974,154.095 182.912 C 154.195 182.850,154.377 182.987,154.499 183.215 C 154.622 183.444,154.808 183.578,154.914 183.512 C 155.020 183.447,155.106 183.488,155.106 183.604 C 155.106 183.842,157.041 185.339,157.348 185.339 C 157.458 185.339,157.632 185.475,157.735 185.642 C 157.838 185.809,158.013 185.945,158.123 185.945 C 158.234 185.945,158.442 186.087,158.586 186.260 C 158.943 186.691,160.292 187.664,160.531 187.664 C 160.638 187.664,160.783 187.814,160.853 187.997 C 160.923 188.179,161.029 188.280,161.088 188.221 C 161.148 188.161,161.484 188.376,161.836 188.697 C 162.188 189.019,162.593 189.282,162.735 189.282 C 162.877 189.282,162.993 189.388,162.993 189.518 C 162.993 189.648,163.044 189.703,163.106 189.641 C 163.168 189.579,163.507 189.792,163.860 190.114 C 164.212 190.436,164.685 190.757,164.910 190.827 C 165.135 190.897,165.364 191.010,165.420 191.079 C 166.308 192.173,174.811 196.810,179.060 198.519 C 188.239 202.211,197.371 202.125,208.696 198.242 C 210.197 197.727,211.721 197.207,212.083 197.086 C 212.444 196.966,212.740 196.799,212.740 196.715 C 212.740 196.631,212.881 196.562,213.054 196.562 C 213.226 196.562,213.658 196.408,214.014 196.219 C 214.370 196.031,214.752 195.859,214.863 195.837 C 215.658 195.682,224.427 191.029,224.719 190.609 C 224.801 190.491,224.869 190.468,224.871 190.557 C 224.875 190.774,226.087 190.053,226.087 189.833 C 226.087 189.739,226.172 189.715,226.277 189.780 C 226.381 189.844,226.549 189.751,226.649 189.572 C 226.749 189.392,226.868 189.262,226.914 189.283 C 227.089 189.360,228.109 188.804,228.109 188.631 C 228.109 188.531,228.190 188.499,228.288 188.560 C 228.461 188.667,229.557 187.931,229.694 187.616 C 229.731 187.530,229.845 187.511,229.946 187.574 C 230.048 187.637,230.131 187.592,230.131 187.474 C 230.131 187.356,230.258 187.260,230.412 187.260 C 230.566 187.260,231.156 186.941,231.722 186.552 C 232.288 186.163,232.798 185.844,232.856 185.844 C 232.914 185.844,233.405 185.526,233.947 185.137 C 234.489 184.747,235.013 184.429,235.112 184.429 C 235.211 184.429,235.542 184.198,235.846 183.915 C 236.151 183.632,236.400 183.457,236.400 183.524 C 236.400 183.636,237.572 182.886,237.816 182.618 C 237.872 182.557,238.236 182.336,238.625 182.127 C 239.014 181.917,239.424 181.644,239.536 181.520 C 239.647 181.396,239.864 181.267,240.018 181.235 C 240.365 181.160,242.139 179.961,242.231 179.739 C 242.268 179.649,242.376 179.575,242.469 179.575 C 242.799 179.575,245.096 178.110,245.096 177.900 C 245.096 177.783,245.154 177.746,245.226 177.817 C 245.381 177.973,246.512 177.336,246.512 177.093 C 246.512 176.999,246.589 176.970,246.683 177.029 C 246.778 177.087,247.033 176.979,247.250 176.788 C 247.468 176.597,248.269 176.122,249.031 175.733 C 249.793 175.344,250.516 174.934,250.638 174.822 C 250.760 174.711,251.360 174.393,251.972 174.117 C 252.583 173.840,253.129 173.561,253.185 173.496 C 253.351 173.302,254.077 173.038,254.333 173.078 C 254.463 173.098,254.628 173.021,254.698 172.907 C 254.769 172.793,255.003 172.700,255.219 172.700 C 255.435 172.700,255.612 172.603,255.612 172.486 C 255.612 172.368,255.687 172.318,255.778 172.374 C 255.869 172.431,256.190 172.349,256.491 172.193 C 256.791 172.037,257.080 171.905,257.133 171.900 C 257.186 171.895,257.275 171.879,257.331 171.866 C 257.545 171.812,257.761 171.766,258.493 171.620 C 258.911 171.536,259.252 171.384,259.252 171.281 C 259.252 171.179,259.379 171.143,259.535 171.203 C 259.690 171.263,259.879 171.213,259.953 171.092 C 260.028 170.972,260.166 170.921,260.260 170.979 C 260.354 171.037,260.689 170.978,261.004 170.848 C 261.664 170.574,261.545 170.609,262.588 170.382 C 263.033 170.284,263.466 170.220,263.549 170.239 C 263.632 170.258,263.701 170.202,263.701 170.114 C 263.701 169.968,264.050 169.897,264.961 169.858 C 265.153 169.850,265.361 169.762,265.422 169.662 C 265.483 169.563,265.667 169.533,265.831 169.596 C 265.994 169.658,266.287 169.643,266.481 169.561 C 266.911 169.380,267.151 169.345,269.464 169.129 C 272.401 168.854,277.110 168.968,277.601 169.327 C 277.739 169.427,278.074 169.453,278.347 169.385 C 278.620 169.316,278.903 169.357,278.976 169.475 C 279.049 169.594,279.304 169.671,279.544 169.648 C 279.784 169.625,280.116 169.658,280.283 169.720 C 280.450 169.783,281.064 169.883,281.647 169.943 C 282.847 170.066,282.764 170.185,283.041 167.947 C 283.124 167.280,283.226 166.552,283.268 166.330 C 283.310 166.107,283.368 165.691,283.398 165.404 C 283.427 165.118,283.514 164.782,283.590 164.658 C 283.667 164.535,283.725 164.178,283.719 163.865 C 283.714 163.552,283.849 162.575,284.019 161.693 C 284.189 160.811,284.353 159.719,284.383 159.266 C 284.414 158.813,284.493 158.352,284.559 158.241 C 284.625 158.129,284.740 157.474,284.816 156.785 L 284.952 155.531 284.185 155.326 C 283.763 155.213,283.236 155.126,283.013 155.132 C 282.791 155.138,282.290 155.079,281.901 155.001 C 281.512 154.923,280.966 154.836,280.688 154.807 C 280.222 154.759,279.864 154.700,278.160 154.389 C 275.671 153.935,269.208 154.133,264.914 154.795 C 264.636 154.838,263.999 154.930,263.498 155.000 C 262.998 155.070,262.224 155.229,261.780 155.353 C 261.335 155.477,260.789 155.608,260.566 155.645 C 259.706 155.787,256.719 156.589,256.623 156.704 C 256.567 156.771,256.249 156.854,255.915 156.890 C 255.581 156.925,255.278 157.040,255.241 157.144 C 255.203 157.248,255.099 157.288,255.009 157.232 C 254.866 157.144,253.679 157.485,252.781 157.873 C 252.614 157.945,252.417 158.011,252.342 158.021 C 252.268 158.031,252.146 158.100,252.070 158.176 C 251.994 158.252,251.805 158.265,251.649 158.205 C 251.493 158.145,251.365 158.178,251.365 158.277 C 251.365 158.377,251.162 158.473,250.913 158.492 C 250.664 158.511,250.431 158.616,250.394 158.726 C 250.358 158.836,250.197 158.876,250.037 158.814 C 249.878 158.753,249.747 158.784,249.747 158.884 C 249.747 158.983,249.551 159.079,249.310 159.097 C 249.070 159.116,248.810 159.234,248.732 159.360 C 248.654 159.486,248.554 159.559,248.509 159.522 C 248.387 159.419,246.512 160.225,246.512 160.380 C 246.512 160.455,246.250 160.568,245.929 160.632 C 245.609 160.696,245.210 160.885,245.043 161.052 C 244.876 161.219,244.683 161.300,244.615 161.231 C 244.546 161.162,244.489 161.227,244.489 161.375 C 244.489 161.523,244.429 161.584,244.354 161.510 C 244.280 161.435,244.075 161.504,243.899 161.664 C 243.723 161.823,243.488 161.969,243.377 161.989 C 243.032 162.051,241.588 162.815,240.950 163.273 C 240.617 163.513,240.094 163.836,239.788 163.992 C 239.482 164.147,239.232 164.356,239.232 164.455 C 239.232 164.554,239.144 164.580,239.037 164.514 C 238.930 164.448,238.664 164.571,238.447 164.789 C 238.230 165.006,237.999 165.131,237.934 165.066 C 237.869 165.001,237.816 165.059,237.816 165.196 C 237.816 165.332,237.739 165.396,237.644 165.337 C 237.550 165.279,237.281 165.410,237.046 165.629 C 236.812 165.847,236.525 166.026,236.409 166.026 C 236.293 166.026,236.198 166.123,236.198 166.240 C 236.198 166.358,236.107 166.398,235.995 166.329 C 235.883 166.260,235.736 166.345,235.670 166.519 C 235.603 166.693,235.381 166.835,235.177 166.835 C 234.973 166.835,234.749 166.927,234.680 167.040 C 234.610 167.153,234.218 167.418,233.808 167.629 C 233.399 167.841,232.861 168.205,232.613 168.440 C 232.365 168.674,232.122 168.841,232.075 168.811 C 232.027 168.781,231.204 169.280,230.247 169.919 C 229.290 170.559,228.434 171.082,228.345 171.082 C 228.256 171.082,227.825 171.400,227.388 171.790 C 226.950 172.179,226.502 172.500,226.390 172.504 C 226.279 172.508,225.324 173.053,224.267 173.715 C 223.210 174.377,221.709 175.299,220.930 175.763 C 220.152 176.228,219.448 176.707,219.366 176.828 C 219.284 176.949,219.216 176.978,219.214 176.893 C 219.211 176.708,217.556 177.721,217.344 178.038 C 217.262 178.161,217.194 178.186,217.192 178.094 C 217.189 177.929,214.955 179.117,214.762 179.387 C 214.707 179.465,214.525 179.563,214.358 179.604 C 214.191 179.646,212.826 180.311,211.325 181.082 C 209.823 181.854,208.526 182.467,208.443 182.446 C 208.359 182.424,208.291 182.497,208.291 182.609 C 208.291 182.720,208.223 182.792,208.140 182.770 C 207.923 182.711,206.471 183.273,206.471 183.415 C 206.471 183.480,206.275 183.549,206.034 183.567 C 205.794 183.585,205.544 183.672,205.478 183.761 C 205.413 183.850,205.177 183.955,204.954 183.993 C 204.732 184.032,204.232 184.205,203.842 184.377 C 203.453 184.550,203.043 184.701,202.932 184.713 C 202.503 184.759,199.894 185.522,199.798 185.630 C 199.742 185.692,199.515 185.767,199.292 185.797 C 199.070 185.826,198.615 185.885,198.281 185.927 C 197.947 185.969,197.083 186.113,196.360 186.247 C 194.499 186.591,189.356 186.557,188.747 186.196 C 188.652 186.140,188.256 186.030,187.867 185.952 C 186.962 185.772,183.951 184.693,182.963 184.195 C 182.546 183.986,182.204 183.868,182.204 183.933 C 182.204 183.999,182.061 183.910,181.887 183.736 C 181.712 183.561,181.325 183.360,181.027 183.290 C 180.729 183.219,180.349 183.047,180.182 182.908 C 179.810 182.599,178.089 181.722,177.980 181.787 C 177.937 181.813,177.846 181.750,177.778 181.648 C 177.605 181.388,175.364 179.980,175.122 179.980 C 175.013 179.980,174.924 179.912,174.923 179.828 C 174.922 179.697,173.867 179.007,173.611 178.970 C 173.561 178.962,173.229 178.690,172.873 178.365 C 172.517 178.040,172.151 177.821,172.058 177.878 C 171.966 177.935,171.891 177.885,171.891 177.767 C 171.891 177.649,171.805 177.553,171.701 177.553 C 171.597 177.553,171.217 177.284,170.857 176.956 C 170.498 176.627,170.138 176.399,170.057 176.449 C 169.977 176.499,169.854 176.391,169.784 176.209 C 169.714 176.026,169.610 175.924,169.553 175.981 C 169.496 176.038,169.171 175.824,168.830 175.505 C 168.489 175.186,168.132 174.973,168.038 175.032 C 167.944 175.090,167.766 174.951,167.644 174.722 C 167.522 174.493,167.341 174.356,167.242 174.417 C 167.143 174.478,166.988 174.397,166.898 174.236 C 166.708 173.898,164.069 171.891,163.814 171.891 C 163.720 171.891,163.588 171.749,163.522 171.575 C 163.455 171.401,163.313 171.312,163.207 171.378 C 163.100 171.444,162.919 171.321,162.803 171.106 C 162.688 170.890,162.251 170.506,161.833 170.252 C 161.414 169.998,160.998 169.669,160.908 169.521 C 160.817 169.374,160.658 169.306,160.554 169.371 C 160.449 169.435,160.364 169.404,160.364 169.302 C 160.364 169.099,157.672 167.037,157.407 167.037 C 157.318 167.037,157.030 166.787,156.767 166.481 C 156.505 166.175,156.349 166.062,156.421 166.229 C 156.493 166.395,156.405 166.350,156.225 166.127 C 156.045 165.905,155.833 165.721,155.755 165.718 C 155.676 165.716,155.348 165.465,155.026 165.162 C 154.704 164.859,154.317 164.611,154.167 164.611 C 154.016 164.611,153.893 164.542,153.893 164.459 C 153.893 164.376,153.559 164.041,153.151 163.715 C 152.743 163.390,152.478 163.253,152.562 163.412 C 152.646 163.571,152.547 163.514,152.343 163.286 C 151.884 162.773,150.455 161.713,150.455 161.885 C 150.455 161.954,150.322 161.890,150.159 161.743 C 149.469 161.121,149.278 161.002,149.162 161.118 C 149.095 161.185,149.039 161.137,149.039 161.011 C 149.039 160.803,146.888 159.289,146.759 159.405 C 146.729 159.432,146.485 159.249,146.216 158.999 C 145.947 158.749,145.608 158.544,145.462 158.544 C 145.317 158.544,145.197 158.457,145.197 158.351 C 145.197 158.245,144.901 158.016,144.540 157.841 C 144.178 157.667,143.655 157.346,143.377 157.128 L 142.872 156.733 143.680 156.706 C 144.125 156.692,145.081 156.681,145.804 156.682 C 148.529 156.687,150.618 155.764,150.712 154.512 C 150.729 154.283,150.825 154.095,150.924 154.095 C 151.024 154.095,151.056 153.967,150.996 153.811 C 150.936 153.656,150.949 153.466,151.025 153.390 C 151.101 153.314,151.170 153.192,151.179 153.118 C 151.188 153.043,151.393 152.543,151.634 152.005 C 151.875 151.468,152.074 150.967,152.076 150.893 C 152.078 150.819,152.485 149.638,152.982 148.269 C 153.478 146.899,153.876 145.716,153.865 145.640 C 153.854 145.563,153.867 145.432,153.894 145.349 C 153.921 145.265,153.964 145.129,153.989 145.046 C 154.014 144.962,154.159 144.575,154.311 144.186 C 154.463 143.797,154.568 143.410,154.544 143.327 C 154.519 143.243,154.600 143.175,154.723 143.175 C 154.846 143.175,154.896 143.041,154.833 142.878 C 154.771 142.715,154.808 142.527,154.916 142.460 C 155.024 142.393,155.064 142.260,155.005 142.164 C 154.946 142.068,154.983 141.937,155.087 141.872 C 155.191 141.808,155.518 141.005,155.813 140.089 C 156.108 139.172,156.439 138.237,156.548 138.010 C 156.658 137.782,156.774 137.464,156.807 137.302 C 156.840 137.140,157.020 136.662,157.206 136.240 C 157.393 135.818,157.492 135.386,157.426 135.279 C 157.361 135.173,157.400 135.086,157.515 135.086 C 157.629 135.086,157.670 134.949,157.606 134.783 C 157.542 134.616,157.600 134.479,157.735 134.479 C 157.870 134.479,157.930 134.349,157.869 134.189 C 157.808 134.029,157.830 133.870,157.919 133.835 C 158.050 133.783,159.938 128.649,159.951 128.308 C 159.953 128.253,160.092 127.879,160.261 127.477 C 160.429 127.075,160.566 126.594,160.566 126.408 C 160.566 126.223,160.745 125.720,160.964 125.291 C 161.183 124.862,161.314 124.433,161.256 124.338 C 161.197 124.243,161.243 124.166,161.357 124.166 C 161.471 124.166,161.516 124.039,161.456 123.883 C 161.396 123.727,161.446 123.539,161.567 123.465 C 161.687 123.390,161.734 123.244,161.670 123.141 C 161.606 123.037,161.660 122.952,161.789 122.952 C 161.919 122.952,161.973 122.816,161.909 122.649 C 161.845 122.482,161.871 122.346,161.966 122.346 C 162.062 122.346,162.211 122.096,162.297 121.790 C 162.481 121.140,162.486 121.125,162.641 120.728 C 162.938 119.968,163.595 118.087,163.595 117.996 C 163.595 117.940,163.741 117.554,163.919 117.138 C 164.098 116.721,164.247 116.175,164.250 115.925 C 164.254 115.675,164.346 115.470,164.455 115.470 C 164.565 115.470,164.602 115.334,164.538 115.167 C 164.474 115.000,164.497 114.863,164.590 114.863 C 164.683 114.863,164.918 114.295,165.111 113.600 C 165.305 112.904,165.552 112.226,165.661 112.092 C 165.770 111.958,165.800 111.753,165.728 111.637 C 165.657 111.521,165.675 111.426,165.770 111.426 C 165.906 111.426,166.237 110.533,166.521 109.403 C 166.535 109.348,166.644 109.120,166.764 108.898 C 167.044 108.378,167.318 107.353,167.264 107.027 C 167.241 106.888,167.332 106.775,167.467 106.775 C 167.601 106.775,167.652 106.715,167.578 106.641 C 167.505 106.568,167.531 106.405,167.636 106.279 C 167.740 106.153,167.880 105.739,167.947 105.359 C 168.014 104.979,168.155 104.565,168.259 104.439 C 168.364 104.313,168.390 104.150,168.316 104.076 C 168.243 104.003,168.299 103.943,168.441 103.943 C 168.587 103.943,168.648 103.812,168.582 103.640 C 168.518 103.473,168.542 103.337,168.635 103.337 C 168.729 103.337,168.922 102.904,169.065 102.376 C 169.208 101.848,169.392 101.325,169.475 101.213 C 169.557 101.102,169.736 100.602,169.873 100.101 C 170.010 99.601,170.289 98.812,170.494 98.349 C 170.841 97.562,171.087 96.696,171.131 96.107 C 171.141 95.968,171.211 95.854,171.286 95.854 C 171.419 95.854,171.891 94.519,172.031 93.747 C 172.069 93.533,172.198 93.241,172.317 93.099 C 172.435 92.956,172.474 92.744,172.402 92.628 C 172.330 92.512,172.357 92.417,172.462 92.417 C 172.566 92.417,172.760 91.986,172.893 91.459 C 173.026 90.932,173.209 90.409,173.302 90.296 C 173.436 90.131,173.742 89.213,174.025 88.119 C 174.047 88.036,174.087 87.922,174.115 87.867 C 174.143 87.811,174.185 87.697,174.208 87.614 C 174.231 87.530,174.356 87.206,174.486 86.893 C 174.616 86.580,174.722 86.153,174.722 85.944 C 174.722 85.736,174.814 85.508,174.927 85.438 C 175.041 85.368,175.081 85.226,175.017 85.123 C 174.953 85.019,175.006 84.934,175.136 84.934 C 175.266 84.934,175.320 84.798,175.255 84.631 C 175.191 84.464,175.213 84.328,175.303 84.328 C 175.393 84.328,175.582 83.941,175.724 83.468 C 175.865 82.995,176.062 82.427,176.160 82.204 C 177.435 79.324,177.653 75.855,176.515 76.559 C 176.419 76.618,176.340 76.560,176.340 76.429 C 176.340 76.291,176.170 76.236,175.935 76.297 C 175.713 76.355,175.484 76.326,175.426 76.233 C 175.301 76.030,169.465 76.108,168.470 76.325 C 167.649 76.504,166.797 77.024,166.941 77.258 C 166.998 77.349,166.950 77.482,166.835 77.553 C 166.720 77.624,166.679 77.767,166.743 77.870 C 166.807 77.974,166.753 78.059,166.623 78.059 C 166.494 78.059,166.440 78.195,166.504 78.362 C 166.568 78.529,166.544 78.665,166.451 78.665 C 166.281 78.665,165.757 80.291,165.757 80.815 C 165.757 80.967,165.681 81.092,165.588 81.092 C 165.495 81.092,165.434 81.160,165.452 81.244 C 165.469 81.327,165.437 81.532,165.379 81.699 C 164.700 83.664,164.366 84.666,164.334 84.833 C 164.313 84.944,164.225 85.149,164.138 85.288 C 164.051 85.427,164.036 85.632,164.105 85.743 C 164.174 85.854,164.145 85.945,164.041 85.945 C 163.937 85.945,163.783 86.241,163.698 86.603 C 163.613 86.964,163.525 87.305,163.503 87.361 C 163.481 87.417,163.406 87.599,163.335 87.765 C 163.265 87.932,163.167 88.307,163.118 88.599 C 163.069 88.890,162.932 89.299,162.813 89.509 C 162.510 90.041,161.780 92.407,161.780 92.854 C 161.780 93.059,161.706 93.225,161.616 93.225 C 161.525 93.225,161.332 93.703,161.185 94.287 C 161.038 94.871,160.850 95.440,160.766 95.551 C 160.593 95.780,160.267 97.090,160.325 97.321 C 160.347 97.404,160.288 97.472,160.195 97.472 C 160.103 97.472,160.019 97.586,160.010 97.725 C 160.001 97.864,159.345 99.889,158.552 102.224 C 157.760 104.560,157.077 106.653,157.034 106.876 C 156.991 107.098,156.938 107.303,156.916 107.331 C 156.894 107.358,156.857 107.449,156.833 107.533 C 156.810 107.616,156.697 107.912,156.582 108.190 C 156.468 108.468,156.075 109.651,155.711 110.819 C 155.347 111.987,154.975 113.124,154.885 113.347 C 154.671 113.877,154.065 115.717,154.019 115.976 C 153.999 116.087,153.928 116.269,153.860 116.380 C 153.731 116.594,152.078 121.627,151.967 122.144 C 151.932 122.310,151.677 123.038,151.402 123.761 C 151.126 124.484,150.905 125.121,150.910 125.177 C 150.927 125.366,150.626 126.288,150.340 126.921 C 150.184 127.268,150.023 127.723,149.983 127.932 C 149.943 128.141,149.796 128.584,149.657 128.918 C 149.517 129.252,149.355 129.866,149.296 130.283 C 149.237 130.700,149.100 131.041,148.991 131.041 C 148.883 131.041,148.846 131.178,148.910 131.345 C 148.974 131.512,148.929 131.648,148.809 131.648 C 148.690 131.648,148.640 131.774,148.699 131.927 C 148.757 132.080,148.704 132.308,148.579 132.432 C 148.454 132.557,148.438 132.661,148.544 132.662 C 148.650 132.664,148.632 132.732,148.504 132.814 C 148.377 132.896,148.240 133.190,148.201 133.468 C 148.162 133.746,148.070 134.019,147.998 134.075 C 147.926 134.130,147.809 134.536,147.740 134.976 C 147.670 135.417,147.537 135.826,147.445 135.886 C 147.265 136.005,146.761 137.418,146.720 137.921 C 146.706 138.089,146.625 138.340,146.541 138.477 C 146.456 138.614,146.460 138.727,146.550 138.729 C 146.640 138.731,146.615 138.799,146.493 138.881 C 146.208 139.073,145.576 140.947,145.718 141.178 C 145.778 141.275,145.731 141.355,145.614 141.355 C 145.496 141.355,145.399 141.488,145.399 141.651 C 145.399 141.814,145.252 142.383,145.071 142.915 C 144.890 143.447,144.722 143.974,144.697 144.085 C 144.569 144.657,144.325 144.958,144.069 144.860 C 143.912 144.800,143.830 144.675,143.887 144.583 C 143.944 144.491,143.896 144.358,143.782 144.287 C 143.667 144.216,143.619 144.083,143.676 143.991 C 143.733 143.900,143.656 143.519,143.507 143.146 C 143.178 142.325,142.951 141.694,142.935 141.557 C 142.921 141.434,141.588 137.532,141.415 137.108 C 141.346 136.941,141.305 136.737,141.323 136.653 C 141.340 136.570,141.264 136.502,141.153 136.502 C 141.041 136.502,140.950 136.312,140.950 136.080 C 140.950 135.702,140.208 133.350,139.679 132.053 C 139.566 131.775,139.443 131.396,139.407 131.212 C 139.371 131.027,139.151 130.370,138.920 129.750 C 138.688 129.131,138.519 128.599,138.545 128.569 C 138.571 128.539,138.478 128.301,138.339 128.041 C 138.200 127.781,138.043 127.332,137.991 127.044 C 137.939 126.756,137.835 126.422,137.761 126.303 C 137.686 126.184,137.598 125.909,137.564 125.691 C 137.530 125.474,137.432 125.246,137.346 125.186 C 137.260 125.125,137.178 124.884,137.164 124.650 C 137.149 124.415,136.981 123.869,136.790 123.436 C 136.599 123.003,136.413 122.502,136.376 122.323 C 136.340 122.143,136.203 121.734,136.072 121.413 C 135.940 121.092,135.799 120.647,135.757 120.425 C 135.715 120.202,135.592 119.990,135.483 119.952 C 135.375 119.915,135.337 119.801,135.400 119.700 C 135.463 119.598,135.443 119.401,135.357 119.262 C 135.270 119.123,135.171 118.829,135.137 118.609 C 135.102 118.389,134.986 118.120,134.878 118.012 C 134.770 117.904,134.681 117.646,134.681 117.439 C 134.681 117.231,134.572 116.863,134.438 116.620 C 134.211 116.206,134.163 116.070,134.019 115.420 C 133.988 115.281,133.891 115.053,133.804 114.914 C 133.718 114.775,133.701 114.661,133.767 114.661 C 133.833 114.661,133.773 114.457,133.634 114.206 C 133.495 113.956,133.372 113.706,133.360 113.650 C 133.267 113.209,132.790 111.678,132.611 111.249 C 132.489 110.957,132.371 110.650,132.348 110.566 C 132.324 110.483,132.287 110.392,132.265 110.364 C 132.243 110.336,132.184 110.090,132.134 109.817 C 132.083 109.543,131.976 109.270,131.896 109.210 C 131.815 109.150,131.746 109.009,131.743 108.898 C 131.729 108.428,131.403 107.381,131.271 107.381 C 131.192 107.381,131.115 107.222,131.099 107.027 C 131.051 106.451,129.566 102.230,129.385 102.157 C 129.294 102.119,129.270 102.006,129.333 101.904 C 129.396 101.802,129.377 101.605,129.290 101.466 C 129.203 101.327,129.104 101.031,129.070 100.809 C 129.036 100.586,128.924 100.376,128.822 100.341 C 128.721 100.306,128.688 100.147,128.749 99.987 C 128.810 99.827,128.779 99.697,128.681 99.697 C 128.582 99.697,128.482 99.466,128.458 99.184 C 128.435 98.903,128.277 98.403,128.107 98.074 C 127.937 97.745,127.805 97.453,127.815 97.424 C 127.840 97.346,127.697 96.856,127.416 96.057 C 127.279 95.667,127.025 94.871,126.852 94.287 C 126.678 93.703,126.461 93.225,126.368 93.225 C 126.276 93.225,126.253 93.089,126.317 92.922 C 126.381 92.755,126.327 92.619,126.198 92.619 C 126.068 92.619,126.017 92.530,126.083 92.423 C 126.150 92.315,126.068 91.962,125.901 91.639 C 125.734 91.316,125.655 90.995,125.724 90.926 C 125.794 90.856,125.748 90.799,125.621 90.799 C 125.495 90.799,125.444 90.662,125.508 90.495 C 125.572 90.329,125.519 90.192,125.389 90.192 C 125.259 90.192,125.205 90.108,125.269 90.005 C 125.332 89.902,125.300 89.606,125.196 89.348 C 124.813 88.393,124.709 88.065,124.740 87.917 C 124.758 87.834,124.666 87.765,124.537 87.765 C 124.407 87.765,124.356 87.710,124.423 87.643 C 124.490 87.576,124.272 86.780,123.938 85.874 C 123.605 84.968,123.322 84.113,123.311 83.974 C 123.299 83.835,123.217 83.721,123.127 83.721 C 123.038 83.721,123.018 83.584,123.082 83.418 C 123.146 83.251,123.092 83.114,122.962 83.114 C 122.832 83.114,122.780 83.027,122.846 82.921 C 122.912 82.815,122.812 82.382,122.625 81.960 C 122.437 81.538,122.300 81.086,122.320 80.956 C 122.340 80.825,122.263 80.660,122.149 80.590 C 122.035 80.519,121.941 80.239,121.941 79.968 C 121.941 79.696,121.870 79.474,121.783 79.474 C 121.696 79.474,121.605 79.224,121.580 78.918 C 121.555 78.612,121.354 78.115,121.132 77.814 C 120.910 77.513,120.728 77.174,120.728 77.061 C 120.728 76.175,111.757 75.590,111.219 76.441 C 111.114 76.608,111.026 76.674,111.024 76.588 C 111.023 76.502,110.792 76.582,110.511 76.766 C 109.990 77.107,109.788 79.111,110.247 79.395 C 110.343 79.454,110.369 79.587,110.305 79.690 C 110.241 79.794,110.282 79.879,110.396 79.879 C 110.511 79.879,110.552 80.015,110.488 80.182 C 110.424 80.349,110.469 80.485,110.589 80.485 C 110.708 80.485,110.754 80.622,110.690 80.789 C 110.624 80.960,110.685 81.092,110.831 81.092 C 110.973 81.092,111.033 81.148,110.965 81.216 C 110.855 81.326,110.950 81.659,111.539 83.215 C 111.623 83.438,111.678 83.688,111.660 83.771 C 111.642 83.855,111.699 83.923,111.786 83.923 C 111.873 83.923,111.965 84.169,111.989 84.470 C 112.014 84.771,112.125 85.108,112.236 85.219 C 112.346 85.329,112.437 85.629,112.437 85.885 C 112.437 86.141,112.533 86.350,112.651 86.350 C 112.769 86.350,112.825 86.418,112.776 86.502 C 112.727 86.585,112.780 86.881,112.895 87.159 C 113.009 87.437,113.138 87.846,113.180 88.069 C 113.223 88.291,113.346 88.504,113.455 88.541 C 113.564 88.578,113.607 88.682,113.552 88.772 C 113.496 88.862,113.573 89.241,113.723 89.615 C 113.872 89.988,114.068 90.475,114.156 90.698 C 114.245 90.920,114.343 91.226,114.374 91.378 C 114.542 92.204,115.566 94.843,115.719 94.843 C 115.818 94.843,115.847 94.926,115.785 95.027 C 115.693 95.176,116.143 96.566,117.037 98.888 C 117.102 99.055,117.167 99.237,117.182 99.292 C 117.507 100.457,118.217 102.326,118.335 102.326 C 118.421 102.326,118.438 102.462,118.374 102.629 C 118.310 102.796,118.364 102.932,118.494 102.932 C 118.624 102.932,118.674 103.022,118.606 103.132 C 118.538 103.242,118.616 103.629,118.779 103.992 C 118.942 104.354,119.184 105.015,119.318 105.460 C 119.451 105.905,119.690 106.476,119.849 106.730 C 120.008 106.983,120.083 107.279,120.017 107.387 C 119.950 107.495,119.997 107.583,120.121 107.583 C 120.246 107.583,120.295 107.668,120.231 107.772 C 120.167 107.875,120.246 108.262,120.407 108.631 C 120.839 109.625,120.998 110.093,120.962 110.263 C 120.945 110.346,121.027 110.415,121.144 110.415 C 121.262 110.415,121.300 110.510,121.228 110.626 C 121.156 110.742,121.219 110.983,121.368 111.162 C 121.516 111.341,121.617 111.519,121.592 111.557 C 121.491 111.710,121.801 112.841,121.944 112.841 C 122.029 112.841,122.163 113.183,122.241 113.600 C 122.319 114.017,122.526 114.676,122.700 115.066 C 122.874 115.455,123.025 115.819,123.036 115.875 C 123.138 116.435,123.907 118.436,124.064 118.551 C 124.176 118.633,124.197 118.701,124.113 118.703 C 124.028 118.704,124.106 119.047,124.287 119.464 C 124.468 119.881,124.621 120.336,124.627 120.475 C 124.633 120.614,124.719 120.728,124.818 120.728 C 124.917 120.728,124.948 120.809,124.887 120.909 C 124.825 121.008,124.898 121.395,125.047 121.768 C 125.197 122.141,125.393 122.629,125.484 122.851 C 125.574 123.074,125.657 123.301,125.668 123.357 C 125.679 123.413,125.763 123.574,125.853 123.716 C 125.943 123.859,126.053 124.261,126.097 124.611 C 126.142 124.961,126.271 125.341,126.385 125.455 C 126.499 125.569,126.593 125.823,126.593 126.021 C 126.593 126.218,126.812 126.875,127.080 127.481 C 127.348 128.087,127.515 128.636,127.451 128.700 C 127.387 128.764,127.446 128.817,127.582 128.817 C 127.718 128.817,127.780 128.898,127.719 128.997 C 127.616 129.162,128.057 130.469,128.714 131.951 C 128.862 132.285,129.102 132.990,129.247 133.519 C 129.393 134.047,129.588 134.479,129.682 134.479 C 129.775 134.479,129.796 134.569,129.728 134.679 C 129.660 134.789,129.799 135.312,130.036 135.842 C 130.274 136.372,130.503 136.977,130.547 137.188 C 130.695 137.912,131.094 139.029,131.295 139.282 C 131.405 139.421,131.436 139.535,131.362 139.535 C 131.289 139.535,131.343 139.740,131.482 139.990 C 131.621 140.240,131.743 140.490,131.753 140.546 C 131.903 141.357,132.121 141.962,132.265 141.962 C 132.363 141.962,132.392 142.098,132.328 142.265 C 132.264 142.432,132.318 142.568,132.447 142.568 C 132.577 142.568,132.631 142.653,132.567 142.757 C 132.503 142.860,132.544 143.003,132.659 143.074 C 132.774 143.145,132.823 143.276,132.768 143.364 C 132.713 143.453,132.840 143.879,133.050 144.310 C 133.259 144.741,133.388 145.162,133.337 145.247 C 133.285 145.331,133.319 145.399,133.412 145.399 C 133.506 145.399,133.601 145.630,133.625 145.912 C 133.648 146.193,133.804 146.689,133.972 147.014 C 134.140 147.338,134.277 147.784,134.277 148.004 C 134.277 148.224,134.409 148.536,134.571 148.698 C 134.732 148.859,134.816 149.040,134.757 149.099 C 134.697 149.158,134.766 149.420,134.910 149.679 C 135.054 149.939,135.153 150.219,135.130 150.301 C 135.107 150.383,135.314 151.052,135.591 151.788 C 135.906 152.625,136.001 153.086,135.843 153.018 C 132.290 151.490,131.194 151.068,131.034 151.168 C 130.927 151.234,130.839 151.206,130.839 151.106 C 130.839 150.938,129.534 150.451,128.817 150.351 C 128.650 150.328,128.377 150.258,128.210 150.195 C 127.197 149.816,125.771 149.427,125.544 149.467 C 125.398 149.493,124.914 149.417,124.469 149.297 C 124.024 149.178,123.524 149.073,123.357 149.065 C 123.190 149.056,122.553 148.982,121.941 148.899 C 119.903 148.625,111.038 148.714,110.516 149.015 C 110.309 149.133,109.408 149.218,108.256 149.226 C 107.903 149.229,107.561 149.316,107.497 149.420 C 107.433 149.523,107.198 149.560,106.975 149.502 C 106.753 149.444,106.449 149.497,106.300 149.620 C 106.151 149.744,105.974 149.789,105.905 149.720 C 105.837 149.652,105.618 149.666,105.418 149.750 C 105.219 149.835,104.919 149.929,104.752 149.959 C 104.585 149.990,104.221 150.070,103.943 150.138 C 103.665 150.206,103.031 150.312,102.534 150.373 C 102.038 150.435,101.537 150.544,101.422 150.617 C 101.307 150.689,101.122 150.753,101.011 150.759 C 100.670 150.777,99.405 151.102,99.201 151.223 C 99.096 151.286,98.823 151.349,98.595 151.364 C 98.367 151.378,97.975 151.458,97.725 151.543 L 97.270 151.696 97.270 114.574 C 97.270 77.500,97.269 77.451,96.858 77.040 C 96.632 76.814,96.359 76.683,96.251 76.749 C 96.144 76.815,96.057 76.767,96.057 76.643 C 96.057 76.519,95.962 76.476,95.846 76.547 C 95.729 76.619,95.499 76.566,95.334 76.429 C 94.834 76.013,88.705 76.066,88.444 76.488 C 88.389 76.577,88.262 76.599,88.162 76.537 C 87.903 76.377,86.827 76.970,86.680 77.355 C 86.612 77.532,86.555 95.075,86.553 116.341 L 86.550 155.005 86.109 155.338 C 85.866 155.521,85.548 155.625,85.402 155.569 C 85.256 155.513,85.137 155.568,85.137 155.691 C 85.137 155.814,85.068 155.899,84.985 155.878 C 84.690 155.807,83.114 156.386,83.114 156.566 C 83.114 156.666,83.030 156.695,82.926 156.631 C 82.822 156.567,82.681 156.608,82.611 156.721 C 82.541 156.834,82.301 156.926,82.078 156.926 C 81.855 156.926,81.473 157.035,81.230 157.169 C 80.987 157.303,80.610 157.442,80.392 157.478 C 80.174 157.514,79.691 157.723,79.319 157.943 C 78.947 158.162,78.511 158.342,78.350 158.342 C 78.190 158.342,78.059 158.413,78.059 158.501 C 78.059 158.589,77.862 158.675,77.622 158.693 C 77.382 158.711,77.131 158.799,77.066 158.888 C 77.000 158.977,76.810 159.079,76.643 159.115 C 76.476 159.151,75.930 159.369,75.430 159.600 C 74.929 159.831,74.429 160.041,74.317 160.068 C 74.206 160.094,73.598 160.354,72.965 160.644 C 72.333 160.935,71.758 161.173,71.687 161.173 C 71.616 161.173,71.421 161.310,71.253 161.478 C 71.086 161.646,70.865 161.732,70.762 161.668 C 70.660 161.605,70.576 161.650,70.576 161.768 C 70.576 161.885,70.508 161.963,70.425 161.940 C 70.144 161.864,68.756 162.416,68.756 162.604 C 68.756 162.707,68.688 162.768,68.605 162.740 C 68.367 162.661,66.127 163.674,66.127 163.861 C 66.127 163.953,66.036 163.972,65.925 163.903 C 65.814 163.834,65.723 163.866,65.723 163.974 C 65.723 164.082,65.609 164.153,65.470 164.132 C 65.037 164.066,64.700 163.782,64.822 163.586 C 64.886 163.482,64.869 163.285,64.784 163.148 C 64.699 163.011,64.615 162.761,64.596 162.592 C 64.544 162.120,63.023 157.041,62.900 156.926 C 62.840 156.871,62.762 156.552,62.726 156.218 C 62.690 155.885,62.582 155.583,62.485 155.548 C 62.387 155.513,62.358 155.354,62.419 155.194 C 62.481 155.035,62.425 154.904,62.295 154.904 C 62.165 154.904,62.109 154.823,62.170 154.725 C 62.309 154.500,61.070 150.379,60.836 150.286 C 60.742 150.249,60.712 150.143,60.769 150.050 C 60.826 149.958,60.766 149.624,60.636 149.309 C 60.507 148.994,60.419 148.622,60.442 148.483 C 60.464 148.344,60.398 148.231,60.294 148.231 C 60.190 148.231,60.118 148.117,60.134 147.978 C 60.184 147.526,59.201 144.388,59.010 144.388 C 58.907 144.388,58.875 144.305,58.938 144.203 C 59.001 144.101,58.947 143.760,58.817 143.445 C 58.688 143.129,58.570 142.781,58.555 142.669 C 58.507 142.320,58.019 140.721,57.790 140.167 C 57.669 139.875,57.534 139.408,57.489 139.130 C 57.444 138.852,57.321 138.594,57.216 138.557 C 57.111 138.520,57.069 138.417,57.124 138.329 C 57.208 138.193,56.494 135.830,56.084 134.884 C 56.011 134.717,55.964 134.520,55.978 134.447 C 56.001 134.332,55.218 131.928,54.869 131.041 C 54.803 130.875,54.721 130.519,54.685 130.251 C 54.650 129.983,54.548 129.710,54.459 129.644 C 54.370 129.579,54.278 129.336,54.256 129.106 C 54.233 128.876,54.104 128.421,53.970 128.095 C 53.836 127.769,53.742 127.431,53.762 127.343 C 53.781 127.255,53.686 126.982,53.551 126.736 C 53.415 126.490,53.272 126.062,53.232 125.784 C 53.193 125.506,53.074 125.248,52.969 125.210 C 52.864 125.173,52.823 125.070,52.878 124.981 C 52.962 124.845,52.472 123.177,52.044 122.144 C 51.975 121.977,51.889 121.621,51.854 121.353 C 51.819 121.085,51.717 120.812,51.628 120.746 C 51.539 120.681,51.447 120.439,51.424 120.208 C 51.401 119.978,51.274 119.523,51.140 119.197 C 51.007 118.871,50.886 118.514,50.873 118.402 C 50.795 117.772,50.503 116.886,50.372 116.886 C 50.288 116.886,50.211 116.772,50.201 116.633 C 50.192 116.494,50.137 115.993,50.080 115.521 C 50.021 115.033,50.061 114.661,50.172 114.661 C 50.279 114.661,50.423 114.502,50.491 114.307 C 50.560 114.113,50.810 113.680,51.046 113.347 C 51.804 112.280,52.983 110.260,52.983 110.030 C 52.983 109.908,53.079 109.808,53.197 109.808 C 53.315 109.808,53.361 109.726,53.299 109.627 C 53.238 109.527,53.329 109.391,53.502 109.325 C 53.676 109.258,53.761 109.112,53.691 109.000 C 53.622 108.888,53.660 108.797,53.775 108.797 C 53.953 108.797,54.522 107.911,54.650 107.434 C 54.673 107.349,54.808 107.144,54.951 106.977 C 55.094 106.810,55.230 106.582,55.254 106.471 C 55.278 106.360,55.437 106.107,55.606 105.909 C 55.776 105.710,55.910 105.483,55.904 105.403 C 55.897 105.323,56.054 105.085,56.251 104.873 C 56.448 104.662,56.561 104.412,56.503 104.317 C 56.444 104.223,56.470 104.145,56.560 104.145 C 56.723 104.144,58.401 101.398,58.476 101.011 C 58.498 100.900,58.635 100.689,58.782 100.542 C 58.929 100.395,59.050 100.144,59.050 99.986 C 59.050 99.827,59.146 99.697,59.264 99.697 C 59.381 99.697,59.422 99.606,59.353 99.494 C 59.284 99.383,59.313 99.292,59.418 99.292 C 59.522 99.292,59.727 98.996,59.873 98.635 C 60.019 98.274,60.195 97.932,60.265 97.877 C 60.479 97.705,61.766 95.365,61.811 95.066 C 61.835 94.910,61.939 94.728,62.042 94.661 C 62.283 94.507,63.189 92.770,63.135 92.568 C 63.112 92.485,63.190 92.417,63.308 92.417 C 63.426 92.417,63.466 92.326,63.397 92.214 C 63.329 92.103,63.354 92.012,63.453 92.012 C 63.620 92.012,64.728 90.016,64.767 89.646 C 64.776 89.557,64.905 89.363,65.053 89.215 C 65.201 89.067,65.271 88.862,65.207 88.760 C 65.144 88.658,65.183 88.574,65.293 88.574 C 65.489 88.574,65.733 88.046,65.703 87.687 C 65.695 87.588,65.776 87.452,65.883 87.384 C 66.187 87.191,68.953 81.559,68.813 81.419 C 68.745 81.350,68.800 81.294,68.937 81.294 C 69.073 81.294,69.135 81.214,69.074 81.115 C 69.013 81.016,69.098 80.823,69.264 80.686 C 69.430 80.548,69.565 80.362,69.565 80.272 C 69.565 80.122,70.045 79.020,71.309 76.265 C 71.583 75.667,71.758 75.128,71.697 75.067 C 71.636 75.006,71.722 74.749,71.888 74.495 C 72.276 73.904,73.431 71.002,73.467 70.531 C 73.481 70.333,73.558 70.172,73.637 70.172 C 73.766 70.172,74.088 69.153,74.115 68.655 C 74.121 68.544,74.180 68.362,74.245 68.251 C 74.558 67.720,75.401 64.721,75.525 63.701 C 75.532 63.645,75.603 63.496,75.684 63.369 C 75.765 63.242,75.863 62.778,75.903 62.337 C 75.943 61.897,76.033 61.444,76.103 61.330 C 76.689 60.382,76.643 53.833,76.036 51.769 C 75.921 51.380,75.779 50.792,75.719 50.463 C 75.660 50.134,75.514 49.747,75.395 49.604 C 75.275 49.460,75.228 49.343,75.289 49.343 C 75.350 49.343,75.191 48.820,74.936 48.180 C 74.240 46.435,73.968 45.905,73.768 45.905 C 73.668 45.905,73.642 45.814,73.711 45.703 C 73.780 45.592,73.758 45.501,73.662 45.501 C 73.567 45.501,73.374 45.182,73.233 44.793 C 73.092 44.403,72.902 44.085,72.810 44.085 C 72.718 44.085,72.591 43.878,72.527 43.626 C 72.464 43.373,72.249 42.987,72.050 42.766 C 71.851 42.546,71.435 41.975,71.124 41.498 C 70.814 41.021,70.177 40.254,69.708 39.794 C 69.240 39.334,68.994 39.032,69.161 39.123 C 69.761 39.451,64.706 34.592,63.248 33.439 C 63.087 33.313,62.605 32.903,62.176 32.529 C 61.748 32.156,61.474 31.987,61.567 32.154 C 61.661 32.321,61.547 32.275,61.313 32.053 C 60.532 31.308,60.171 31.041,60.014 31.092 C 59.929 31.120,59.858 31.065,59.858 30.969 C 59.858 30.782,57.649 29.361,57.353 29.359 C 57.254 29.358,57.118 29.270,57.050 29.164 C 56.785 28.750,53.677 26.994,53.337 27.066 C 53.253 27.084,53.185 27.021,53.185 26.927 C 53.185 26.832,52.798 26.593,52.326 26.395 C 51.853 26.198,51.047 25.822,50.536 25.560 C 50.024 25.298,49.546 25.142,49.474 25.214 C 49.402 25.286,49.343 25.234,49.343 25.098 C 49.343 24.961,49.260 24.901,49.158 24.964 C 49.056 25.027,48.942 24.995,48.905 24.893 C 48.868 24.792,48.655 24.677,48.433 24.639 C 48.210 24.601,47.983 24.514,47.927 24.444 C 47.802 24.289,44.944 23.234,44.388 23.138 C 44.166 23.099,43.442 22.881,42.780 22.653 C 42.118 22.425,41.279 22.202,40.916 22.157 C 40.553 22.111,40.177 22.026,40.081 21.966 C 39.984 21.907,39.640 21.816,39.316 21.764 C 35.719 21.192,35.692 21.190,32.659 21.132 C 30.756 21.096,29.265 21.181,28.109 21.392 M35.439 36.109 C 36.711 36.335,36.937 36.385,37.592 36.585 C 37.969 36.699,38.348 36.750,38.434 36.697 C 38.520 36.644,38.621 36.669,38.658 36.753 C 38.710 36.870,41.323 37.834,41.860 37.934 C 41.916 37.945,42.371 38.143,42.872 38.375 C 43.372 38.607,43.918 38.827,44.085 38.863 C 44.252 38.899,44.434 38.978,44.489 39.039 C 44.665 39.232,47.010 40.318,47.169 40.279 C 47.252 40.259,47.321 40.349,47.321 40.479 C 47.321 40.608,47.376 40.659,47.443 40.592 C 47.511 40.524,47.752 40.643,47.979 40.855 C 48.207 41.066,48.460 41.198,48.542 41.148 C 48.623 41.097,48.803 41.192,48.940 41.357 C 49.078 41.523,49.315 41.658,49.469 41.658 C 49.622 41.658,49.747 41.735,49.747 41.829 C 49.747 41.922,50.086 42.173,50.500 42.385 C 50.915 42.597,51.412 42.952,51.606 43.175 C 51.800 43.397,51.961 43.508,51.965 43.420 C 51.973 43.239,52.053 43.302,53.589 44.688 C 54.201 45.240,54.770 45.694,54.853 45.697 C 55.220 45.710,59.002 49.775,59.537 50.732 C 59.639 50.913,59.843 51.134,59.992 51.223 C 60.141 51.312,60.263 51.542,60.263 51.735 C 60.263 51.927,60.387 52.263,60.539 52.483 C 61.333 53.628,61.723 55.339,61.605 57.162 C 61.477 59.155,61.409 59.673,61.240 59.963 C 61.177 60.072,61.063 60.504,60.988 60.921 C 60.912 61.339,60.530 62.613,60.138 63.752 C 59.746 64.892,59.399 65.961,59.366 66.127 C 59.333 66.294,59.157 66.772,58.976 67.189 C 58.230 68.900,58.078 69.336,58.190 69.448 C 58.255 69.512,58.212 69.565,58.094 69.565 C 57.893 69.565,57.529 70.499,57.601 70.829 C 57.619 70.913,57.543 70.981,57.432 70.981 C 57.321 70.981,57.230 71.082,57.230 71.206 C 57.230 71.330,56.904 72.127,56.506 72.976 C 56.108 73.825,55.766 74.611,55.747 74.722 C 55.728 74.833,55.666 74.970,55.610 75.025 C 55.417 75.214,51.972 82.296,51.972 82.504 C 51.972 82.617,51.875 82.710,51.758 82.710 C 51.640 82.710,51.600 82.801,51.668 82.912 C 51.737 83.023,51.715 83.114,51.619 83.114 C 51.478 83.114,50.527 84.776,50.463 85.137 C 50.453 85.192,50.300 85.465,50.124 85.743 C 49.486 86.752,48.245 89.087,48.201 89.363 C 48.177 89.519,48.037 89.722,47.890 89.815 C 47.744 89.908,47.715 89.986,47.826 89.990 C 47.943 89.993,47.934 90.059,47.805 90.145 C 47.469 90.368,44.109 96.216,44.241 96.347 C 44.303 96.410,44.266 96.461,44.157 96.461 C 44.048 96.461,43.843 96.006,43.700 95.450 C 43.557 94.894,43.353 94.439,43.245 94.439 C 43.138 94.439,43.096 94.365,43.152 94.274 C 43.262 94.095,42.693 91.975,42.490 91.810 C 42.422 91.754,42.361 91.618,42.355 91.507 C 42.322 90.867,41.990 89.788,41.826 89.788 C 41.721 89.788,41.691 89.697,41.759 89.585 C 41.828 89.474,41.813 89.269,41.726 89.130 C 41.639 88.991,41.537 88.650,41.499 88.372 C 41.462 88.094,41.351 87.838,41.253 87.803 C 41.155 87.768,41.124 87.609,41.186 87.449 C 41.247 87.289,41.191 87.159,41.061 87.159 C 40.932 87.159,40.877 87.076,40.939 86.975 C 41.002 86.874,40.745 85.804,40.369 84.599 C 39.992 83.393,39.621 82.111,39.543 81.749 C 39.465 81.388,39.341 81.092,39.266 81.092 C 39.191 81.092,39.117 80.887,39.100 80.637 C 39.083 80.387,38.956 79.909,38.818 79.575 C 38.680 79.242,38.549 78.832,38.526 78.665 C 38.461 78.192,35.957 69.489,35.820 69.262 C 35.754 69.151,35.686 68.991,35.670 68.908 C 35.655 68.825,35.624 68.734,35.603 68.706 C 35.581 68.678,35.532 68.428,35.494 68.150 C 35.420 67.622,34.242 63.217,34.033 62.690 C 33.967 62.523,33.880 62.204,33.840 61.982 C 33.800 61.759,33.711 61.441,33.642 61.274 C 33.573 61.107,33.498 60.789,33.476 60.566 C 33.439 60.215,32.250 55.255,32.069 54.702 C 32.033 54.590,31.986 54.433,31.964 54.352 C 31.943 54.270,31.835 53.906,31.725 53.543 C 31.615 53.179,31.482 52.573,31.429 52.196 C 31.377 51.820,31.283 51.428,31.220 51.326 C 31.157 51.224,31.062 50.761,31.008 50.296 C 30.955 49.831,30.827 49.349,30.725 49.226 C 30.623 49.103,30.585 48.957,30.640 48.902 C 30.695 48.847,30.509 47.672,30.226 46.292 C 28.763 39.142,28.852 36.184,30.536 36.024 C 30.925 35.988,31.280 35.922,31.324 35.879 C 31.420 35.787,34.637 35.967,35.439 36.109 M193.279 76.556 C 193.224 76.611,192.969 76.696,192.712 76.746 C 192.454 76.795,192.182 76.937,192.105 77.060 C 192.029 77.183,191.886 77.287,191.787 77.291 C 191.325 77.308,190.199 78.660,190.640 78.668 C 190.727 78.670,190.662 78.758,190.495 78.863 C 190.228 79.033,190.192 83.416,190.192 116.322 L 190.192 153.589 190.612 154.398 C 190.900 154.951,191.347 155.380,192.028 155.755 L 193.023 156.302 212.979 156.314 C 226.511 156.323,232.976 156.259,233.064 156.118 C 233.135 156.003,233.273 155.958,233.372 156.019 C 233.601 156.161,234.132 155.355,234.389 154.474 C 234.932 152.619,234.496 148.231,233.770 148.231 C 233.646 148.231,233.593 148.153,233.652 148.058 C 234.005 147.487,232.487 147.425,218.245 147.437 C 210.268 147.443,203.081 147.442,202.275 147.435 L 200.809 147.422 200.809 133.165 L 200.809 118.908 214.570 118.908 L 228.331 118.908 228.823 118.377 C 229.094 118.085,229.271 117.774,229.216 117.686 C 229.162 117.599,229.232 117.489,229.372 117.442 C 229.754 117.315,229.661 111.830,229.277 111.830 C 229.178 111.830,229.153 111.739,229.221 111.628 C 229.290 111.517,229.250 111.426,229.132 111.426 C 229.014 111.426,228.941 111.315,228.969 111.180 C 229.157 110.263,228.299 110.201,215.672 110.220 C 209.110 110.229,203.081 110.232,202.275 110.225 L 200.809 110.212 200.809 97.776 L 200.809 85.339 204.904 85.323 C 207.156 85.314,214.232 85.314,220.627 85.322 C 233.055 85.338,233.268 85.322,233.499 84.353 C 233.568 84.061,233.691 83.731,233.772 83.620 C 233.988 83.322,234.032 82.826,234.038 80.586 C 234.045 78.027,233.573 76.775,232.522 76.565 C 231.765 76.414,193.430 76.405,193.279 76.556 M310.689 96.759 C 309.434 97.067,308.392 97.511,308.392 97.736 C 308.392 97.826,308.316 97.853,308.222 97.795 C 307.801 97.535,302.123 102.149,302.123 102.751 C 302.123 102.836,301.668 103.372,301.112 103.943 C 300.556 104.514,300.101 105.102,300.101 105.250 C 300.101 105.397,299.959 105.572,299.785 105.639 C 299.611 105.706,299.503 105.829,299.546 105.914 C 299.588 105.998,299.412 106.286,299.154 106.554 L 298.686 107.041 298.660 106.352 C 298.646 105.972,298.641 104.091,298.648 102.171 C 298.666 97.473,298.720 97.535,294.401 97.329 C 291.918 97.211,290.347 97.515,289.792 98.221 C 289.385 98.738,289.110 154.360,289.509 155.400 C 289.639 155.739,290.514 156.266,291.274 156.463 C 292.144 156.689,297.270 156.713,297.270 156.491 C 297.270 156.373,297.412 156.331,297.585 156.397 C 297.916 156.524,299.163 156.085,299.356 155.773 C 299.450 155.621,299.619 139.311,299.706 121.891 C 299.718 119.369,299.804 117.695,299.920 117.695 C 300.027 117.695,300.175 117.535,300.249 117.341 C 300.323 117.146,300.546 116.813,300.743 116.600 C 300.941 116.387,301.287 115.841,301.512 115.387 C 301.737 114.932,301.921 114.638,301.921 114.734 C 301.921 114.913,303.237 113.157,303.468 112.669 C 303.607 112.377,303.692 112.282,305.876 109.991 C 307.296 108.500,309.093 107.131,309.960 106.880 C 310.210 106.807,310.415 106.676,310.415 106.589 C 310.415 106.503,310.682 106.424,311.009 106.415 C 311.335 106.405,311.768 106.319,311.969 106.223 C 312.171 106.127,312.609 106.067,312.942 106.090 C 314.755 106.214,315.828 106.354,316.279 106.525 C 316.557 106.630,316.898 106.676,317.037 106.628 C 317.176 106.579,317.290 106.641,317.290 106.767 C 317.290 106.892,317.404 106.976,317.543 106.954 C 317.682 106.931,317.978 106.986,318.200 107.076 C 318.423 107.165,318.919 107.365,319.303 107.519 C 320.484 107.993,321.569 107.523,321.625 106.513 C 321.639 106.268,321.715 105.962,321.795 105.834 C 322.107 105.335,321.917 99.547,321.566 98.860 C 321.179 98.103,320.436 97.520,319.717 97.410 C 319.439 97.368,318.975 97.236,318.687 97.117 C 317.290 96.539,312.461 96.323,310.689 96.759 M246.790 121.220 C 245.130 121.949,245.071 127.845,246.711 129.164 C 246.945 129.352,250.248 129.412,260.668 129.417 L 274.319 129.424 274.888 128.820 C 275.201 128.488,275.401 128.124,275.331 128.011 C 275.261 127.898,275.294 127.806,275.404 127.806 C 276.249 127.806,275.599 121.809,274.695 121.276 C 274.303 121.044,247.313 120.990,246.790 121.220 M55.207 186.754 C 55.207 187.790,55.035 187.865,53.900 187.324 C 53.012 186.900,53.014 186.857,53.945 186.308 C 55.055 185.654,55.207 185.708,55.207 186.754 " stroke="none" fill="#04c848" fill-rule="evenodd"></path></g></svg>